<svg xmlns="http://www.w3.org/2000/svg" width="225.677" height="244.14" viewBox="0, 0, 225.677, 244.14"><defs><clipPath id="a"><path d="M0 0h225.677v244.14H0z"/></clipPath></defs><g clip-path="url(#a)"><path d="M225.677 97.505C225.677 43.655 196.367 0 160.2 0c-17.066 0-32.616 9.722-44.257 25.65-9.148 13.812-39.49 55.6-61.154 56.527H27.074C12.125 82.177 0 94.303 0 109.265v106.507c0 14.962 12.126 27.075 27.075 27.075h171.528c14.948 0 27.074-12.113 27.074-27.075z" fill="#231F20"/><path d="M32.25 244.14H20.043v-43.474H32.25zM45.55 244.14H33.348v-43.474H45.55zM58.854 244.14H46.65v-43.474h12.204zM72.154 244.14H59.95v-43.474h12.204zM85.457 244.14H73.252v-43.474h12.205zM98.76 244.14H86.554v-43.474H98.76zM112.06 244.14H99.858v-43.474h12.204zM125.363 244.14h-12.205v-43.474h12.205zM138.652 244.14h-12.19v-43.474h12.19zM151.953 244.14H139.75v-43.474h12.203zM165.256 244.14H153.05v-43.474h12.206zM178.558 244.14h-12.204v-43.474h12.204zM191.86 244.14h-12.205v-43.474h12.205zM205.162 244.14h-12.205v-43.474h12.205z" fill="#FFF"/><path d="M36.98 226.97h-8.376v-26.304h8.375zM49.928 226.97h-8.39v-26.304h8.39zM63.49 226.97h-8.388v-26.304h8.39zM130.17 226.97h-8.388v-26.304h8.39zM143.525 226.97h-8.39v-26.304h8.39zM156.763 226.97h-8.39v-26.304h8.39zM90.16 226.97h-8.388v-26.304h8.39zM103.358 226.97h-8.39v-26.304h8.39zM183.367 226.97h-8.402v-26.304h8.402zM196.55 226.97h-8.375v-26.304h8.376z" fill="#231F20"/></g></svg>